HIERARCHY
ROOT Hips
{
	OFFSET 0.00000 0.00000 0.00000
	CHANNELS 6 Xposition Yposition Zposition Zrotation Yrotation Xrotation 
	JOINT LHipJoint
	{
		OFFSET 0 0 0
		CHANNELS 3 Zrotation Yrotation Xrotation
		JOINT LeftUpLeg
		{
			OFFSET 1.38280 -1.96574 0.54427
			CHANNELS 3 Zrotation Yrotation Xrotation
			JOINT LeftLeg
			{
				OFFSET 2.72096 -7.47578 0.00000
				CHANNELS 3 Zrotation Yrotation Xrotation
				JOINT LeftFoot
				{
					OFFSET 2.73041 -7.50176 0.00000
					CHANNELS 3 Zrotation Yrotation Xrotation
					JOINT LeftToeBase
					{
						OFFSET 0.16150 -0.44371 2.18031
						CHANNELS 3 Zrotation Yrotation Xrotation
						End Site
						{
							OFFSET 0.00000 -0.00000 1.12127
						}
					}
				}
			}
		}
	}
	JOINT RHipJoint
	{
		OFFSET 0 0 0
		CHANNELS 3 Zrotation Yrotation Xrotation
		JOINT RightUpLeg
		{
			OFFSET -1.57224 -1.96575 0.54427
			CHANNELS 3 Zrotation Yrotation Xrotation
			JOINT RightLeg
			{
				OFFSET -2.95935 -8.13076 0.00000
				CHANNELS 3 Zrotation Yrotation Xrotation
				JOINT RightFoot
				{
					OFFSET -2.52345 -6.93311 0.00000
					CHANNELS 3 Zrotation Yrotation Xrotation
					JOINT RightToeBase
					{
						OFFSET -0.04475 -0.10171 1.86688
						CHANNELS 3 Zrotation Yrotation Xrotation
						End Site
						{
							OFFSET -0.00000 -0.00000 0.95157
						}
					}
				}
			}
		}
	}
	JOINT LowerBack
	{
		OFFSET 0 0 0
		CHANNELS 3 Zrotation Yrotation Xrotation
		JOINT Spine
		{
			OFFSET 0.00669 2.07367 0.09104
			CHANNELS 3 Zrotation Yrotation Xrotation
			JOINT Spine1
			{
				OFFSET -0.00664 2.06198 -0.04732
				CHANNELS 3 Zrotation Yrotation Xrotation
				JOINT Neck
				{
					OFFSET 0 0 0
					CHANNELS 3 Zrotation Yrotation Xrotation
					JOINT Neck1
					{
						OFFSET -0.00021 1.49948 0.16345
						CHANNELS 3 Zrotation Yrotation Xrotation
						JOINT Head
						{
							OFFSET 0.06080 1.50567 -0.26702
							CHANNELS 3 Zrotation Yrotation Xrotation
							End Site
							{
								OFFSET 0.01726 1.56470 -0.11854
							}
						}
					}
				}
				JOINT LeftShoulder
				{
					OFFSET 0 0 0
					CHANNELS 3 Zrotation Yrotation Xrotation
					JOINT LeftArm
					{
						OFFSET 3.14993 0.82932 -0.22488
						CHANNELS 3 Zrotation Yrotation Xrotation
						JOINT LeftForeArm
						{
							OFFSET 5.68236 -0.00000 -0.00000
							CHANNELS 3 Zrotation Yrotation Xrotation
							JOINT LeftHand
							{
								OFFSET 3.17112 -0.00000 0.00000
								CHANNELS 3 Zrotation Yrotation Xrotation
								JOINT LeftFingerBase
								{
									OFFSET 0 0 0
									CHANNELS 3 Zrotation Yrotation Xrotation
									JOINT LeftHandIndex1
									{
										OFFSET 0.63269 -0.00000 0.00000
										CHANNELS 3 Zrotation Yrotation Xrotation
										End Site
										{
											OFFSET 0.51009 -0.00000 0.00000
										}
									}
								}
								JOINT LThumb
								{
									OFFSET 0 0 0
									CHANNELS 3 Zrotation Yrotation Xrotation
									End Site
									{
										OFFSET 0.51788 -0.00000 0.51788
									}
								}
							}
						}
					}
				}
				JOINT RightShoulder
				{
					OFFSET 0 0 0
					CHANNELS 3 Zrotation Yrotation Xrotation
					JOINT RightArm
					{
						OFFSET -3.10571 0.91279 -0.33334
						CHANNELS 3 Zrotation Yrotation Xrotation
						JOINT RightForeArm
						{
							OFFSET -5.87120 -0.00000 -0.00000
							CHANNELS 3 Zrotation Yrotation Xrotation
							JOINT RightHand
							{
								OFFSET -3.37589 -0.00000 0.00000
								CHANNELS 3 Zrotation Yrotation Xrotation
								JOINT RightFingerBase
								{
									OFFSET 0 0 0
									CHANNELS 3 Zrotation Yrotation Xrotation
									JOINT RightHandIndex1
									{
										OFFSET -0.60326 -0.00000 0.00000
										CHANNELS 3 Zrotation Yrotation Xrotation
										End Site
										{
											OFFSET -0.48636 -0.00000 0.00000
										}
									}
								}
								JOINT RThumb
								{
									OFFSET 0 0 0
									CHANNELS 3 Zrotation Yrotation Xrotation
									End Site
									{
										OFFSET -0.49379 -0.00000 0.49379
									}
								}
							}
						}
					}
				}
			}
		}
	}
}
MOTION
Frames: 15
Frame Time: .0083333
10.9709 18.4536 -0.6044 0 0 0 0 0 0 -21 0 0 0 0 0 0 0 0 0 0 0 0 0 0 21 0 0 0 0 0 0 0 0 0 0 0 0 0 0 0 0 0 0 0 0 0 0 -16 0 0 21 0 0 11 0 0 0 -8 0 0 0 0 0 0 0 0 0 0 0 0 0 0 0 0 0 0 0 0 8 0 0 0 0 0 0 0 0 0 0 0 0 0 0 0 0 0
10.9709 18.4536 -0.6044 -165.8650 -84.2210 176.0050 0.0000 0.0000 0.0000 -21.6733 -5.7776 -16.4579 2.2001 9.2709 26.6465 1.6163 -4.1150 -23.0617 0.1870 -2.7851 -7.6811 0.0000 0.0000 0.0000 16.8213 13.0166 -13.6565 -2.2581 -9.3842 27.0048 0.3488 10.5405 2.0531 -5.1480 -13.5486 41.4583 -1.3380 0.9127 -11.3971 0.6345 1.3293 0.1027 1.6439 0.5884 6.4633 -4.0247 -0.7365 -18.2783 2.7201 -0.7609 23.0537 1.5212 -0.4591 10.4344 0.0000 -0.0000 0.0000 -90.9885 -2.1062 13.8130 14.0298 -22.7773 -2.8396 -0.0000 0.0000 -11.5072 13.5979 30.2916 6.9562 -7.1250 0.0000 -0.0000 -20.3749 59.8144 -7.5568 0.0000 -0.0000 0.0000 87.6646 -3.8812 4.3099 -15.1262 24.3217 -3.2778 0.0000 0.0000 19.9187 -20.1024 28.6080 -9.9398 7.1250 -0.0000 -0.0000 6.1350 0.0152 6.1721
10.9661 18.4466 -0.5870 -165.0790 -84.1709 175.2150 0.0000 0.0000 0.0000 -21.6340 -5.8209 -16.5091 2.2319 9.3333 26.8436 1.6412 -4.2049 -23.2323 0.1969 -2.8576 -7.8827 0.0000 0.0000 0.0000 16.8415 12.9259 -13.8939 -2.3220 -9.5067 27.3937 0.3409 10.4016 2.1626 -5.1319 -13.5309 41.3897 -1.3137 0.9101 -11.4062 0.6191 1.3238 0.1035 1.6133 0.5866 6.4703 -4.0108 -0.7370 -18.2429 2.7189 -0.7623 22.9481 1.5173 -0.4570 10.3893 0.0000 -0.0000 0.0000 -91.4423 -2.3738 14.3726 13.9965 -22.7297 -2.8267 -0.0000 0.0000 -11.7461 13.4876 30.2950 6.8988 -7.1250 0.0000 -0.0000 -20.4936 59.7920 -7.5920 0.0000 -0.0000 0.0000 87.7305 -3.8025 4.4593 -15.1628 24.3724 -3.2928 0.0000 0.0000 19.8069 -20.3314 28.7593 -10.1083 7.1250 -0.0000 -0.0000 6.0187 0.2128 6.0746
10.9610 18.4401 -0.5692 -164.6240 -84.1137 174.7330 0.0000 0.0000 0.0000 -21.6335 -5.8579 -16.5298 2.2596 9.3871 27.0140 1.6659 -4.2262 -23.4104 0.2137 -2.9764 -8.2129 0.0000 0.0000 0.0000 16.8231 12.8586 -14.1319 -2.3953 -9.6449 27.8344 0.3348 10.2864 2.3110 -5.1253 -13.5235 41.3612 -1.3087 0.9019 -11.3913 0.5983 1.3141 0.1271 1.5870 0.5822 6.4879 -3.9887 -0.7161 -18.3265 2.7182 -0.7328 22.9229 1.5176 -0.4399 10.3947 -0.0000 0.0000 0.0000 -91.8465 -2.6255 15.1748 14.0506 -22.8070 -2.8477 -0.0000 0.0000 -12.0650 13.4461 30.3835 6.8950 -7.1250 0.0000 -0.0000 -20.6053 59.8647 -7.6716 -0.0000 0.0000 0.0000 87.8072 -3.6827 4.6617 -15.1924 24.4135 -3.3051 0.0000 0.0000 19.7993 -20.5978 28.8830 -10.2891 7.1250 -0.0000 -0.0000 5.8778 0.3900 5.9489
10.9560 18.4346 -0.5521 -164.2260 -84.0610 174.2580 0.0000 0.0000 0.0000 -21.6426 -5.8447 -16.5055 2.2864 9.4388 27.1779 1.6859 -4.2645 -23.5509 0.2273 -3.0686 -8.4697 0.0000 0.0000 0.0000 16.8108 12.7824 -14.3233 -2.4721 -9.7870 28.2898 0.3288 10.1722 2.4765 -5.1102 -13.5069 41.2967 -1.3305 0.8764 -11.3434 0.5946 1.2841 0.1744 1.5901 0.5668 6.5117 -3.9791 -0.6788 -18.4418 2.7294 -0.6805 22.9562 1.5281 -0.4128 10.4267 0.0000 0.0000 0.0000 -92.2051 -2.8578 16.1933 14.1624 -22.9665 -2.8912 -0.0000 0.0000 -12.4678 13.4923 30.4621 6.9354 -7.1250 0.0000 -0.0000 -20.6173 59.9484 -7.7177 0.0000 0.0000 0.0000 87.8602 -3.5226 4.9018 -15.2081 24.4352 -3.3115 0.0000 0.0000 19.7181 -20.8385 28.9704 -10.4459 7.1250 -0.0000 -0.0000 5.7479 0.5258 5.8297
10.9511 18.4290 -0.5355 -163.8920 -84.0144 173.8350 0.0000 0.0000 0.0000 -21.6610 -5.7984 -16.4710 2.3107 9.4852 27.3252 1.7028 -4.3169 -23.6650 0.2407 -3.1570 -8.7162 0.0000 0.0000 0.0000 16.7931 12.7125 -14.5199 -2.5579 -9.9424 28.7904 0.3232 10.0664 2.6423 -5.0954 -13.4905 41.2334 -1.3656 0.8476 -11.2863 0.5948 1.2509 0.2185 1.6041 0.5493 6.5267 -3.9649 -0.6414 -18.4964 2.7243 -0.6277 22.9594 1.5316 -0.3874 10.4361 0.0000 0.0000 0.0000 -92.5395 -3.0654 17.3005 14.2936 -23.1528 -2.9425 -0.0000 0.0000 -12.8900 13.5798 30.5434 6.9983 -7.1250 0.0000 -0.0000 -20.5883 60.0445 -7.7538 0.0000 0.0000 0.0000 87.9131 -3.3675 5.1289 -15.2265 24.4607 -3.3192 0.0000 0.0000 19.6214 -20.9904 28.9765 -10.5294 7.1250 -0.0000 -0.0000 5.6599 0.5616 5.7431
10.9463 18.4238 -0.5195 -163.6430 -83.9735 173.4830 0.0000 0.0000 0.0000 -21.6903 -5.6948 -16.4340 2.3323 9.5265 27.4565 1.7142 -4.4079 -23.7341 0.2530 -3.2362 -8.9369 0.0000 0.0000 0.0000 16.7690 12.6468 -14.7262 -2.6539 -10.1125 29.3417 0.3171 9.9576 2.7983 -5.0799 -13.4732 41.1667 -1.4179 0.8145 -11.2177 0.6006 1.2136 0.2569 1.6326 0.5294 6.5289 -3.9488 -0.6038 -18.4774 2.7074 -0.5753 22.9362 1.5300 -0.3639 10.4219 -0.0000 -0.0000 0.0000 -92.8300 -3.2376 18.5496 14.4520 -23.3771 -3.0051 -0.0000 0.0000 -13.3262 13.7230 30.6065 7.0873 -7.1250 0.0000 -0.0000 -20.4863 60.1367 -7.7588 -0.0000 -0.0000 0.0000 87.9646 -3.2172 5.3413 -15.2453 24.4867 -3.3270 0.0000 0.0000 19.5154 -20.9994 28.8893 -10.5059 7.1250 -0.0000 -0.0000 5.6437 0.4740 5.7180
10.9417 18.4190 -0.5043 -163.4000 -83.9357 173.1420 0.0000 0.0000 0.0000 -21.7176 -5.5545 -16.4108 2.3517 9.5631 27.5732 1.7214 -4.5396 -23.7669 0.2635 -3.3026 -9.1222 0.0000 0.0000 0.0000 16.7445 12.5940 -14.9659 -2.7613 -10.2983 29.9481 0.3114 9.8575 2.9153 -5.0577 -13.4485 41.0713 -1.4705 0.7806 -11.1485 0.6090 1.1747 0.2818 1.6636 0.5088 6.5165 -3.9373 -0.5698 -18.3949 2.6908 -0.5299 22.8934 1.5279 -0.3444 10.3888 -0.0000 -0.0000 0.0000 -93.0648 -3.3762 19.9373 14.6288 -23.6264 -3.0756 -0.0000 0.0000 -13.7543 13.9324 30.6465 7.2070 -7.1250 0.0000 -0.0000 -20.2959 60.2231 -7.7251 -0.0000 -0.0000 0.0000 88.0230 -3.0792 5.5299 -15.2632 24.5115 -3.3344 0.0000 0.0000 19.4435 -20.8962 28.7610 -10.4092 7.1250 -0.0000 -0.0000 5.6882 0.3225 5.7485
10.9370 18.4142 -0.4894 -163.1280 -83.8942 172.7870 0.0000 0.0000 0.0000 -21.7371 -5.4197 -16.3954 2.3681 9.5940 27.6717 1.7273 -4.6925 -23.7880 0.2678 -3.3292 -9.1967 0.0000 0.0000 0.0000 16.7205 12.5663 -15.2526 -2.8813 -10.5004 30.6128 0.3077 9.7958 2.9727 -5.0199 -13.4062 40.9087 -1.5080 0.7476 -11.0862 0.6170 1.1348 0.2973 1.6857 0.4882 6.4984 -3.9382 -0.5373 -18.3065 2.6879 -0.4876 22.8646 1.5324 -0.3262 10.3598 0.0000 0.0000 0.0000 -93.2287 -3.4873 21.4935 14.8346 -23.9152 -3.1586 -0.0000 0.0000 -14.1841 14.2327 30.6877 7.3759 -7.1250 0.0000 -0.0000 -20.0096 60.3324 -7.6632 0.0000 0.0000 0.0000 88.0908 -2.9434 5.7102 -15.2772 24.5309 -3.3402 0.0000 0.0000 19.4372 -20.7917 28.6692 -10.3239 7.1250 -0.0000 -0.0000 5.7382 0.2083 5.7881
10.9323 18.4096 -0.4745 -162.8240 -83.8392 172.4180 0.0000 0.0000 0.0000 -21.7459 -5.3361 -16.3740 2.3817 9.6196 27.7534 1.7360 -4.8372 -23.8309 0.2614 -3.2893 -9.0851 0.0000 0.0000 0.0000 16.6957 12.5759 -15.5917 -3.0138 -10.7174 31.3327 0.3067 9.7801 2.9665 -4.9645 -13.3437 40.6689 -1.5194 0.7180 -11.0350 0.6230 1.0964 0.3134 1.6913 0.4691 6.4876 -3.9546 -0.5043 -18.2678 2.7024 -0.4433 22.8752 1.5465 -0.3065 10.3546 -0.0000 -0.0000 0.0000 -93.3100 -3.5811 23.2471 15.0855 -24.2651 -3.2610 -0.0000 0.0000 -14.6336 14.6346 30.7411 7.6027 -7.1250 0.0000 -0.0000 -19.6235 60.4777 -7.5766 -0.0000 -0.0000 0.0000 88.1663 -2.7914 5.9066 -15.2866 24.5439 -3.3441 0.0000 0.0000 19.4764 -20.7794 28.6813 -10.3213 7.1250 -0.0000 -0.0000 5.7468 0.2184 5.7979
10.9277 18.4057 -0.4595 -162.4610 -83.7599 172.0080 0.0000 0.0000 0.0000 -21.7392 -5.3260 -16.3401 2.3935 9.6416 27.8237 1.7508 -4.9410 -23.9230 0.2460 -3.1919 -8.8134 0.0000 0.0000 0.0000 16.6740 12.6303 -15.9837 -3.1580 -10.9465 32.0996 0.3068 9.7847 2.9158 -4.9018 -13.2724 40.3968 -1.4980 0.6973 -10.9935 0.6262 1.0658 0.3348 1.6771 0.4548 6.4884 -3.9734 -0.4717 -18.2867 2.7162 -0.3965 22.9138 1.5615 -0.2857 10.3704 0.0000 0.0000 0.0000 -93.3042 -3.6699 25.1954 15.3872 -24.6827 -3.3860 -0.0000 0.0000 -15.1031 15.1165 30.8241 7.8806 -7.1250 0.0000 -0.0000 -19.1728 60.6707 -7.4833 0.0000 0.0000 0.0000 88.2510 -2.6141 6.1282 -15.2947 24.5550 -3.3474 0.0000 0.0000 19.5098 -20.8673 28.8045 -10.4078 7.1250 -0.0000 -0.0000 5.7105 0.3615 5.7751
10.9232 18.4020 -0.4448 -162.0430 -83.6550 171.5520 0.0000 0.0000 0.0000 -21.7173 -5.3687 -16.2973 2.4048 9.6628 27.8915 1.7715 -4.9951 -24.0637 0.2276 -3.0707 -8.4757 0.0000 0.0000 0.0000 16.6605 12.7225 -16.4124 -3.3115 -11.1831 32.8998 0.3056 9.7698 2.8467 -4.8491 -13.2119 40.1668 -1.4512 0.6887 -10.9501 0.6269 1.0482 0.3574 1.6481 0.4477 6.4893 -3.9739 -0.4410 -18.3207 2.7036 -0.3494 22.9462 1.5642 -0.2660 10.3868 0.0000 0.0000 0.0000 -93.2166 -3.7552 27.2967 15.7320 -25.1560 -3.5313 -0.0000 0.0000 -15.5649 15.6000 30.9781 8.1780 -7.1250 0.0000 -0.0000 -18.7731 60.9319 -7.4377 0.0000 0.0000 0.0000 88.3476 -2.4228 6.3740 -15.3069 24.5719 -3.3525 0.0000 0.0000 19.4886 -20.9917 28.9783 -10.5307 7.1250 -0.0000 -0.0000 5.6594 0.5636 5.7428
10.9185 18.3979 -0.4311 -161.6250 -83.5384 171.0940 0.0000 0.0000 0.0000 -21.6887 -5.4100 -16.2547 2.4174 9.6862 27.9664 1.7942 -5.0252 -24.2201 0.2127 -2.9691 -8.1928 0.0000 0.0000 0.0000 16.6575 12.8333 -16.8493 -3.4717 -11.4221 33.7171 0.3016 9.7107 2.7700 -4.8169 -13.1746 40.0258 -1.4031 0.6881 -10.8894 0.6284 1.0407 0.3728 1.6203 0.4459 6.4724 -3.9563 -0.4142 -18.3240 2.6652 -0.3073 22.9560 1.5535 -0.2502 10.3893 -0.0000 0.0000 0.0000 -93.0614 -3.8242 29.4886 16.1072 -25.6658 -3.6923 -0.0000 0.0000 -15.9719 15.9615 31.2045 8.4290 -7.1250 0.0000 -0.0000 -18.5602 61.2334 -7.4832 -0.0000 0.0000 0.0000 88.4517 -2.2426 6.6402 -15.3261 24.5984 -3.3605 0.0000 0.0000 19.3955 -21.0764 29.1501 -10.6321 7.1250 -0.0000 -0.0000 5.6316 0.7561 5.7330
10.9131 18.3929 -0.4192 -161.2660 -83.4298 170.6790 0.0000 0.0000 0.0000 -21.6642 -5.3954 -16.2189 2.4320 9.7132 28.0529 1.8135 -5.0692 -24.3495 0.2058 -2.9213 -8.0597 0.0000 0.0000 0.0000 16.6635 12.9435 -17.2690 -3.6359 -11.6595 34.5379 0.2957 9.6201 2.6851 -4.8032 -13.1587 39.9655 -1.3796 0.6858 -10.8042 0.6349 1.0336 0.3791 1.6112 0.4437 6.4314 -3.9435 -0.3917 -18.2939 2.6312 -0.2731 22.9613 1.5439 -0.2381 10.3841 0.0000 0.0000 0.0000 -92.8539 -3.8633 31.7169 16.5079 -26.2045 -3.8675 -0.0000 0.0000 -16.3010 16.1312 31.4341 8.5776 -7.1250 0.0000 -0.0000 -18.5586 61.4916 -7.5964 0.0000 0.0000 0.0000 88.5563 -2.0878 6.9123 -15.3510 24.6328 -3.3709 0.0000 0.0000 19.2675 -21.0995 29.3139 -10.6979 7.1250 -0.0000 -0.0000 5.6390 0.9285 5.7574
10.9067 18.3871 -0.4091 -161.0590 -83.3448 170.4020 0.0000 0.0000 0.0000 -21.6596 -5.3102 -16.1915 2.4478 9.7423 28.1461 1.8258 -5.1464 -24.4265 0.2063 -2.9244 -8.0685 0.0000 0.0000 0.0000 16.6636 13.0441 -17.6689 -3.8027 -11.8932 35.3551 0.2896 9.5277 2.5868 -4.7987 -13.1535 39.9457 -1.3964 0.6724 -10.7038 0.6445 1.0163 0.3823 1.6262 0.4353 6.3782 -3.9500 -0.3697 -18.2584 2.6258 -0.2422 22.9803 1.5474 -0.2262 10.3831 -0.0000 0.0000 0.0000 -92.6018 -3.8759 33.9395 16.9339 -26.7705 -4.0575 -0.0000 0.0000 -16.5768 16.1783 31.5585 8.6337 -7.1250 0.0000 -0.0000 -18.6074 61.6206 -7.6741 -0.0000 0.0000 0.0000 88.6606 -1.9515 7.1758 -15.3804 24.6733 -3.3831 0.0000 0.0000 19.1658 -21.0978 29.4707 -10.7478 7.1250 -0.0000 -0.0000 5.6601 1.0886 5.7947
